<svg role="img" viewBox="0 0 24 24" fill="black" xmlns="http://www.w3.org/2000/svg">
  <title>GitHub</title>
  <path d="M12 0C5.37 0 0 5.373 0 12c0 5.303 3.438 9.8 8.207 11.387.6.112.793-.263.793-.585 0-.288-.01-1.05-.016-2.06-3.34.726-4.042-1.61-4.042-1.61-.546-1.387-1.332-1.756-1.332-1.756-1.09-.746.083-.73.083-.73 1.205.084 1.84 1.237 1.84 1.237 1.07 1.833 2.807 1.303 3.492.997.107-.774.42-1.303.763-1.603-2.667-.303-5.467-1.333-5.467-5.93 0-1.31.468-2.38 1.236-3.22-.123-.303-.536-1.523.117-3.176 0 0 1.01-.322 3.3 1.23.96-.267 1.98-.4 3-.404 1.02.004 2.04.137 3 .404 2.28-1.552 3.29-1.23 3.29-1.23.653 1.653.24 2.873.117 3.176.77.84 1.235 1.91 1.235 3.22 0 4.61-2.807 5.625-5.48 5.92.43.373.813 1.103.813 2.227 0 1.607-.014 2.9-.014 3.293 0 .322.19.703.8.583C20.565 21.796 24 17.298 24 12c0-6.627-5.373-12-12-12z"/>
</svg>
